<?xml version="1.0" encoding="utf-8"?><svg xmlns="http://www.w3.org/2000/svg" xmlns:xlink="http://www.w3.org/1999/xlink" width="1536" height="695" preserveAspectRatio="xMidYMid" viewBox="0 0 1536 695" style="z-index:1;display:block;background-color:rgb(255, 255, 255);animation-play-state:paused" ><g transform="translate(768,347.5) scale(1,1) translate(-768,-347.5)" style="transform:matrix(1, 0, 0, 1, 0, 0);animation-play-state:paused" ><linearGradient id="lg-0.6260342145254931" x1="0" x2="1" y1="0" y2="0" style="animation-play-state:paused" ><stop stop-color="#ff00ff" offset="0" style="animation-play-state:paused" ></stop>

  
<stop stop-color="#00ffff" offset="1" style="animation-play-state:paused" ></stop></linearGradient>
<path d="M 0 0 L 0 582.852 Q 153.6 524.493 307.2 503.932 T 614.4 533.73 T 921.6 448.401 T 1228.8 415.654 T 1536 288.561 L 1536 0 Z" fill="url(#lg-0.6260342145254931)" opacity="0.4" style="opacity:0.4;animation-play-state:paused" ></path>
<path d="M 0 0 L 0 654.376 Q 153.6 618.446 307.2 581.444 T 614.4 524.931 T 921.6 430.543 T 1228.8 332.803 T 1536 327.735 L 1536 0 Z" fill="url(#lg-0.6260342145254931)" opacity="0.4" style="opacity:0.4;animation-play-state:paused" ></path>
<path d="M 0 0 L 0 576.817 Q 153.6 545.308 307.2 522.99 T 614.4 467.369 T 921.6 445.762 T 1228.8 338.646 T 1536 338.889 L 1536 0 Z" fill="url(#lg-0.6260342145254931)" opacity="0.4" style="opacity:0.4;animation-play-state:paused" ></path>
<path d="M 0 0 L 0 583.817 Q 153.6 631.442 307.2 602.582 T 614.4 474.827 T 921.6 438.479 T 1228.8 329.322 T 1536 273.92 L 1536 0 Z" fill="url(#lg-0.6260342145254931)" opacity="0.4" style="opacity:0.4;animation-play-state:paused" ></path>
<path d="M 0 0 L 0 631.748 Q 153.6 632.783 307.2 590.441 T 614.4 527.158 T 921.6 425.382 T 1228.8 351.891 T 1536 330.919 L 1536 0 Z" fill="url(#lg-0.6260342145254931)" opacity="0.4" style="opacity:0.4;animation-play-state:paused" ></path></g></svg>